<?xml version="1.0" encoding="utf-8"?>
<!-- Generator: Adobe Illustrator 24.0.1, SVG Export Plug-In . SVG Version: 6.00 Build 0)  -->
<svg version="1.1" id="LINE_LOGO_1_" xmlns="http://www.w3.org/2000/svg" xmlns:xlink="http://www.w3.org/1999/xlink" x="0px"
	 y="0px" viewBox="0 0 120 120" style="enable-background:new 0 0 120 120;" xml:space="preserve">
<style type="text/css">
	.st0{fill:#FFFFFF;}
</style>
<path class="st0" d="M103.5,54.72c0,7.82-3.03,14.87-9.37,21.81h0c-9.17,10.55-29.66,23.4-34.33,25.37
	c-4.66,1.96-3.97-1.25-3.78-2.36c0.11-0.66,0.62-3.74,0.62-3.74c0.15-1.12,0.3-2.85-0.14-3.95c-0.49-1.22-2.43-1.85-3.85-2.15
	c-21-2.78-36.54-17.45-36.54-34.98c0-19.55,19.6-35.46,43.69-35.46C83.9,19.27,103.5,35.17,103.5,54.72 M50.93,45.28h-3.06
	c-0.47,0-0.85,0.38-0.85,0.85v19.04c0,0.47,0.38,0.85,0.85,0.85h3.06c0.47,0,0.85-0.38,0.85-0.85V46.13
	C51.78,45.66,51.4,45.28,50.93,45.28 M72.02,45.28h-3.06c-0.47,0-0.85,0.38-0.85,0.85v11.31l-8.72-11.78
	c-0.02-0.03-0.04-0.06-0.07-0.09c0,0,0,0-0.01-0.01c-0.02-0.02-0.03-0.04-0.05-0.05c-0.01,0-0.01-0.01-0.02-0.01
	c-0.01-0.01-0.03-0.03-0.05-0.04c-0.01-0.01-0.01-0.01-0.02-0.02c-0.01-0.01-0.03-0.02-0.04-0.03c-0.01-0.01-0.02-0.01-0.03-0.02
	c-0.02-0.01-0.03-0.02-0.05-0.03c-0.01,0-0.02-0.01-0.03-0.01c-0.02-0.01-0.03-0.01-0.05-0.02c-0.01,0-0.02-0.01-0.03-0.01
	c-0.02-0.01-0.03-0.01-0.05-0.02c-0.01,0-0.02,0-0.03-0.01c-0.02,0-0.03-0.01-0.05-0.01c-0.01,0-0.02,0-0.04,0
	c-0.01,0-0.03,0-0.04-0.01c-0.01,0-0.03,0-0.04,0c-0.01,0-0.02,0-0.03,0h-3.06c-0.47,0-0.85,0.38-0.85,0.85v19.04
	c0,0.47,0.38,0.85,0.85,0.85h3.06c0.47,0,0.85-0.38,0.85-0.85V53.86l8.73,11.8c0.06,0.08,0.13,0.15,0.22,0.21c0,0,0.01,0,0.01,0.01
	c0.02,0.01,0.03,0.02,0.05,0.03c0.01,0,0.02,0.01,0.02,0.01c0.01,0.01,0.03,0.01,0.04,0.02c0.01,0.01,0.03,0.01,0.04,0.02
	c0.01,0,0.02,0.01,0.03,0.01c0.02,0.01,0.04,0.01,0.06,0.02c0,0,0.01,0,0.01,0c0.07,0.02,0.14,0.03,0.22,0.03h3.06
	c0.47,0,0.85-0.38,0.85-0.85V46.13C72.87,45.66,72.49,45.28,72.02,45.28 M43.54,61.25h-8.33V46.13c0-0.47-0.38-0.85-0.85-0.85H31.3
	c-0.47,0-0.85,0.38-0.85,0.85v19.04v0c0,0.23,0.09,0.44,0.24,0.59c0,0,0.01,0.01,0.01,0.01c0,0,0.01,0.01,0.01,0.01
	c0.15,0.15,0.36,0.24,0.59,0.24h0h12.24c0.47,0,0.85-0.38,0.85-0.85V62.1C44.39,61.63,44.01,61.25,43.54,61.25 M88.95,50.04
	c0.47,0,0.85-0.38,0.85-0.85v-3.06c0-0.47-0.38-0.85-0.85-0.85H76.7h0c-0.23,0-0.44,0.09-0.59,0.24c0,0-0.01,0.01-0.01,0.01
	c0,0.01-0.01,0.01-0.01,0.02c-0.15,0.15-0.24,0.36-0.24,0.59v0v19.03v0c0,0.23,0.09,0.44,0.24,0.59c0,0,0.01,0.01,0.01,0.01
	c0,0,0.01,0.01,0.01,0.01c0.15,0.15,0.36,0.24,0.59,0.24h0h12.24c0.47,0,0.85-0.38,0.85-0.85V62.1c0-0.47-0.38-0.85-0.85-0.85h-8.33
	v-3.22h8.33c0.47,0,0.85-0.38,0.85-0.85v-3.06c0-0.47-0.38-0.85-0.85-0.85h-8.33v-3.22H88.95z"/>
</svg>
