<?xml version="1.0" encoding="utf-8"?>
<!-- Generator: Adobe Illustrator 24.2.1, SVG Export Plug-In . SVG Version: 6.00 Build 0)  -->
<svg version="1.1" id="レイヤー_1" xmlns="http://www.w3.org/2000/svg" xmlns:xlink="http://www.w3.org/1999/xlink" x="0px"
	 y="0px" viewBox="0 0 450 450" style="enable-background:new 0 0 450 450;" xml:space="preserve">
<g>
	<path d="M182.7,74.2c29,0,56.2,11.3,76.7,31.8c20.5,20.5,31.8,47.7,31.8,76.7s-11.3,56.2-31.8,76.7c-20.5,20.5-47.7,31.8-76.7,31.8
		s-56.2-11.3-76.7-31.8c-20.5-20.5-31.8-47.7-31.8-76.7S85.5,126.5,106,106C126.5,85.5,153.7,74.2,182.7,74.2 M182.7,26.2
		c-86.4,0-156.4,70-156.4,156.4S96.3,339,182.7,339s156.4-70,156.4-156.4S269.1,26.2,182.7,26.2L182.7,26.2z"/>
	<path d="M399.7,423.8c-6.1,0-12.3-2.3-17-7L272.1,306.1c-9.4-9.4-9.4-24.6,0-33.9c9.4-9.4,24.6-9.4,33.9,0l110.6,110.6
		c9.4,9.4,9.4,24.6,0,33.9C412,421.4,405.9,423.8,399.7,423.8z"/>
</g>
</svg>
